# xmcd CD database file
#
# Track frame offsets:
#	150
#	14035
#	32936
#	46843
#	62490
#	78773
#	95860
#	111127
#	127316
#	149563
#	163489
#	184625
#	202544
#	215908
#	232385
#
# Disc length: 3349 seconds
#
# Revision: 0
# Processed by: cddbd v1.5.2PL0 Copyright (c) Steve Scherf et al.
# Submitted via: CDex 1.51
#
DISCID=e60d130f
DTITLE=Tim McGraw - Greatest Hits
DYEAR=2000
DGENRE=Country
TTITLE0=Indian Outlaw
TTITLE1=Don't Take The Girl
TTITLE2=She Never Lets It Go To Her Heart
TTITLE3=I Like It, I Love It
TTITLE4=Just To See You Smile
TTITLE5=It's Your Love (with Faith Hill)
TTITLE6=Where The Green Grass Grows
TTITLE7=For A Little While
TTITLE8=Please Remember Me
TTITLE9=Something Like That
TTITLE10=My Best Friend
TTITLE11=Maybe We Should Just Sleep On It
TTITLE12=Down On The Farm
TTITLE13=My Next Thirty Years
TTITLE14=Let's Make Love (with Faith Hill)
EXTD=YEAR: 2000
EXTT0=
EXTT1=
EXTT2=
EXTT3=
EXTT4=
EXTT5=
EXTT6=
EXTT7=
EXTT8=
EXTT9=
EXTT10=
EXTT11=
EXTT12=
EXTT13=
EXTT14=
PLAYORDER=
